<svg width="42" height="42" viewBox="0 0 42 42" fill="none" xmlns="http://www.w3.org/2000/svg">
<path d="M14.527 26.1967C16.4228 28.1366 18.6668 29.3695 20.1153 29.8642C20.407 29.966 20.7279 30 21 30C21.2721 30 21.5931 29.966 21.8847 29.8642C23.3333 29.3695 25.5772 28.1366 27.473 26.1967C29.3825 24.2426 31 21.5039 31 18.0247C31 14.6984 28.3148 12 24.996 12C23.4646 12 22.0608 12.5817 21.0005 13.5355C19.9427 12.582 18.543 12 17.004 12C13.6852 12 11 14.6984 11 18.0247C11 21.5039 12.6175 24.2426 14.527 26.1967Z" stroke="#202020" stroke-width="2" stroke-linecap="round" stroke-linejoin="round"/>
<rect x="0.5" y="0.5" width="41" height="41" rx="20.5" stroke="#FF3877"/>
</svg>
