<svg width="53" height="52" viewBox="0 0 53 52" fill="none" xmlns="http://www.w3.org/2000/svg">
<mask id="path-1-inside-1_163_739" fill="white">
<path d="M19.5768 20.5192V18.0405C19.5768 14.6641 22.4408 11.3477 26.0009 11.0326C30.2414 10.6424 33.8173 13.8087 33.8173 17.7554V20.2308"/>
</mask>
<path d="M17.5768 20.5192C17.5768 21.6238 18.4723 22.5192 19.5768 22.5192C20.6814 22.5192 21.5768 21.6238 21.5768 20.5192H17.5768ZM26.0009 11.0326L26.1772 13.0248L26.1841 13.0242L26.0009 11.0326ZM31.8173 20.2308C31.8173 21.3353 32.7127 22.2308 33.8173 22.2308C34.9219 22.2308 35.8173 21.3353 35.8173 20.2308H31.8173ZM21.5768 20.5192V18.0405H17.5768V20.5192H21.5768ZM21.5768 18.0405C21.5768 15.6689 23.6803 13.2458 26.1772 13.0248L25.8245 9.04037C21.2012 9.44961 17.5768 13.6593 17.5768 18.0405H21.5768ZM26.1841 13.0242C29.3508 12.7328 31.8173 15.0821 31.8173 17.7554H35.8173C35.8173 12.5354 31.1319 8.55203 25.8176 9.04099L26.1841 13.0242ZM31.8173 17.7554V20.2308H35.8173V17.7554H31.8173Z" fill="#202020" mask="url(#path-1-inside-1_163_739)"/>
<path d="M32.0302 24.9937C31.4779 24.9937 31.0302 25.4415 31.0302 25.9937C31.0302 26.546 31.4779 26.9937 32.0302 26.9937H32.0455C32.5978 26.9937 33.0455 26.546 33.0455 25.9937C33.0455 25.4415 32.5978 24.9937 32.0455 24.9937H32.0302Z" stroke="#202020" stroke-width="2" stroke-linecap="round" stroke-linejoin="round"/>
<path d="M20.9529 24.9937C20.4007 24.9937 19.9529 25.4415 19.9529 25.9937C19.9529 26.546 20.4007 26.9937 20.9529 26.9937H20.9682C21.5205 26.9937 21.9682 26.546 21.9682 25.9937C21.9682 25.4415 21.5205 24.9937 20.9682 24.9937H20.9529Z" stroke="#202020" stroke-width="2" stroke-linecap="round" stroke-linejoin="round"/>
<path d="M16.3627 40L12.7132 21.2308H40.2702L36.3599 40H16.3627Z" stroke="#202020" stroke-width="2"/>
</svg>
