<svg width="28" height="28" viewBox="0 0 28 28" fill="none" xmlns="http://www.w3.org/2000/svg">
<path d="M17.5813 28H11.7209V18.5582H10.4836C9.72829 18.5582 9.11621 17.9461 9.11621 17.1907V14.7163C9.11621 13.961 9.72829 13.3489 10.4836 13.3489H11.7209V10.0931C11.7209 7.39726 13.9088 5.20935 16.6046 5.20935H20.1209C20.8762 5.20935 21.4883 5.82143 21.4883 6.57678V9.70239C21.4883 10.4577 20.8762 11.0698 20.1209 11.0698H17.5813V13.3489H20.0297C20.4464 13.3489 20.8241 13.5312 21.0846 13.8438C21.345 14.1563 21.4492 14.5731 21.3711 14.9768L20.8762 17.4512C20.746 18.0893 20.186 18.5452 19.5348 18.5452H17.5813V28ZM13.6744 26.0466H15.6278V16.6047H19.066L19.3264 15.3024H15.6409V10.4838C15.6409 9.72841 16.253 9.11633 17.0083 9.11633H19.5478V7.16284H16.6046C14.9897 7.16284 13.6744 8.47819 13.6744 10.0931V15.3024H11.0697V16.6047H13.6744V26.0466Z" fill="#202020"/>
<path d="M17.907 28H10.093C3.0214 28 0 24.9786 0 17.907V10.093C0 3.0214 3.0214 0 10.093 0H17.907C24.9786 0 28 3.0214 28 10.093V17.907C28 24.9786 24.9786 28 17.907 28ZM10.093 1.95349C4.0893 1.95349 1.95349 4.0893 1.95349 10.093V17.907C1.95349 23.9107 4.0893 26.0465 10.093 26.0465H17.907C23.9107 26.0465 26.0465 23.9107 26.0465 17.907V10.093C26.0465 4.0893 23.9107 1.95349 17.907 1.95349H10.093Z" fill="#202020"/>
</svg>
