<svg width="164" height="82" viewBox="0 0 164 82" fill="none" xmlns="http://www.w3.org/2000/svg">
<path d="M24.0294 25.48C22.5147 25.48 21.096 25.1387 19.7734 24.456C19.176 24.1573 18.6747 23.8053 18.2694 23.4C17.9707 23.8907 17.5974 24.328 17.1494 24.712C16.7654 24.9893 16.552 25.1387 16.5094 25.16H15.7094V19.08H16.9894C17.3094 20.1253 17.7574 21.064 18.3334 21.896C19.6347 23.752 21.32 24.68 23.3894 24.68C24.6054 24.68 25.576 24.3173 26.3014 23.592C27.0267 22.8667 27.3894 21.896 27.3894 20.68C27.3894 19.976 27.176 19.3467 26.7494 18.792C26.344 18.2373 25.832 17.7467 25.2134 17.32C24.5947 16.8933 23.7307 16.36 22.6214 15.72C21.2134 14.9307 20.072 14.216 19.1974 13.576C18.3227 12.936 17.576 12.136 16.9574 11.176C16.3387 10.1947 16.0294 9.04267 16.0294 7.72C16.0294 6.67467 16.3174 5.736 16.8934 4.904C17.4907 4.05067 18.376 3.37867 19.5494 2.888C20.7227 2.376 22.1627 2.12 23.8694 2.12C25.1067 2.12 26.344 2.472 27.5814 3.176C28.0507 3.432 28.52 3.77333 28.9894 4.2C29.352 3.64533 29.7254 3.208 30.1094 2.888C30.4934 2.61067 30.7067 2.46133 30.7494 2.44H31.5494V8.52H30.2694C29.992 7.496 29.576 6.568 29.0214 5.736C28.5094 4.92533 27.8694 4.25333 27.1014 3.72C26.3547 3.18667 25.4907 2.92 24.5094 2.92C23.6774 2.92 22.9627 3.25067 22.3654 3.912C21.768 4.57333 21.4694 5.416 21.4694 6.44C21.4694 7.22933 21.6934 7.944 22.1414 8.584C22.6107 9.20267 23.176 9.74667 23.8374 10.216C24.52 10.6853 25.4374 11.2507 26.5894 11.912C27.9334 12.68 29.0214 13.3627 29.8534 13.96C30.6854 14.5573 31.3894 15.304 31.9654 16.2C32.5414 17.0747 32.8294 18.088 32.8294 19.24C32.8294 20.392 32.4987 21.448 31.8374 22.408C31.176 23.3467 30.184 24.0933 28.8614 24.648C27.5387 25.2027 25.928 25.48 24.0294 25.48ZM50.9006 25V24.52L52.8206 24.04V3.56L50.9006 3.08V2.6H60.0206V3.08L58.1006 3.56V13.48H64.9806V3.56L63.0606 3.08V2.6H72.1806V3.08L70.2606 3.56V24.04L72.1806 24.52V25H63.0606V24.52L64.9806 24.04V14.28H58.1006V24.04L60.0206 24.52V25H50.9006ZM101.289 25.48C99.1987 25.48 97.364 25.032 95.7854 24.136C94.228 23.2187 93.0227 21.8853 92.1694 20.136C91.316 18.3867 90.8894 16.2747 90.8894 13.8C90.8894 11.3253 91.316 9.21333 92.1694 7.464C93.0227 5.71467 94.228 4.392 95.7854 3.496C97.364 2.57867 99.1987 2.12 101.289 2.12C103.38 2.12 105.204 2.57867 106.761 3.496C108.34 4.392 109.556 5.71467 110.409 7.464C111.263 9.21333 111.689 11.3253 111.689 13.8C111.689 16.2747 111.263 18.3867 110.409 20.136C109.556 21.8853 108.34 23.2187 106.761 24.136C105.204 25.032 103.38 25.48 101.289 25.48ZM101.289 24.84C102.121 24.84 102.889 24.488 103.593 23.784C104.319 23.08 104.916 21.9067 105.385 20.264C105.855 18.6213 106.089 16.4667 106.089 13.8C106.089 11.1333 105.855 8.97867 105.385 7.336C104.916 5.69333 104.319 4.52 103.593 3.816C102.889 3.112 102.121 2.76 101.289 2.76C100.457 2.76 99.6787 3.112 98.9534 3.816C98.2494 4.52 97.6627 5.69333 97.1934 7.336C96.724 8.97867 96.4894 11.1333 96.4894 13.8C96.4894 16.4667 96.724 18.6213 97.1934 20.264C97.6627 21.9067 98.2494 23.08 98.9534 23.784C99.6787 24.488 100.457 24.84 101.289 24.84ZM130.417 24.52L132.337 24.04V3.56L130.417 3.08V2.6H139.377C142.918 2.6 145.457 3.18667 146.993 4.36C148.529 5.512 149.297 7.21867 149.297 9.48C149.297 11.7413 148.529 13.4587 146.993 14.632C145.457 15.784 142.918 16.36 139.377 16.36H137.617V24.04L139.537 24.52V25H130.417V24.52ZM139.377 15.56C140.721 15.56 141.798 15.048 142.609 14.024C143.441 13 143.857 11.4853 143.857 9.48C143.857 7.496 143.441 5.992 142.609 4.968C141.798 3.92267 140.721 3.4 139.377 3.4H137.617V15.56H139.377ZM0.0487505 80.04L5.16875 78.12L22.7688 35.56H24.6888L42.9288 79.08L46.1288 80.04V81H38.4488C36.2301 81 34.4168 80.5093 33.0088 79.528C31.6008 78.504 30.5554 77.1813 29.8728 75.56L26.6088 67.88H11.3128L7.08875 78.12L11.8888 80.04V81H0.0487505V80.04ZM11.9528 66.28H25.9688L18.9288 49.448L11.9528 66.28ZM45.7887 80.04L49.6287 79.08V38.12L45.7887 37.16V36.2H64.0287V37.16L60.1887 38.12V79.4H73.9487C73.9487 76.712 74.6314 74.216 75.9967 71.912C76.5941 70.9307 77.2981 70.12 78.1087 69.48H80.0288V81H45.7887V80.04ZM102.801 81.96C95.9746 81.96 90.6412 79.9333 86.8012 75.88C82.9612 71.8267 81.0412 66.0667 81.0412 58.6C81.0412 53.6933 81.8732 49.4907 83.5372 45.992C85.2439 42.4507 87.6119 39.784 90.6412 37.992C93.7132 36.1573 97.2546 35.24 101.265 35.24C103.697 35.24 106.151 35.944 108.625 37.352C109.564 37.864 110.503 38.5467 111.441 39.4C112.167 38.2907 112.913 37.416 113.681 36.776C114.449 36.2213 114.876 35.9227 114.961 35.88H116.561V48.04H114.001C113.447 45.992 112.615 44.136 111.505 42.472C110.481 40.8507 109.201 39.5067 107.665 38.44C106.172 37.3733 104.444 36.84 102.481 36.84C99.5372 36.84 97.0839 38.5467 95.1212 41.96C93.2012 45.3733 92.2412 50.92 92.2412 58.6C92.2412 66.408 93.2866 71.9973 95.3772 75.368C97.5106 78.696 100.412 80.36 104.081 80.36C106.087 80.36 107.985 79.8053 109.777 78.696C111.612 77.544 113.084 76.0293 114.193 74.152C115.345 72.2747 115.921 70.2907 115.921 68.2H117.521C117.521 70.632 116.86 72.9147 115.537 75.048C114.257 77.1387 112.487 78.824 110.225 80.104C108.007 81.3413 105.532 81.96 102.801 81.96ZM139.976 81.96C135.795 81.96 132.126 81.064 128.968 79.272C125.854 77.4373 123.443 74.7707 121.736 71.272C120.03 67.7733 119.176 63.5493 119.176 58.6C119.176 53.6507 120.03 49.4267 121.736 45.928C123.443 42.4293 125.854 39.784 128.968 37.992C132.126 36.1573 135.795 35.24 139.976 35.24C144.158 35.24 147.806 36.1573 150.92 37.992C154.078 39.784 156.51 42.4293 158.216 45.928C159.923 49.4267 160.776 53.6507 160.776 58.6C160.776 63.5493 159.923 67.7733 158.216 71.272C156.51 74.7707 154.078 77.4373 150.92 79.272C147.806 81.064 144.158 81.96 139.976 81.96ZM139.976 80.68C141.64 80.68 143.176 79.976 144.584 78.568C146.035 77.16 147.23 74.8133 148.168 71.528C149.107 68.2427 149.576 63.9333 149.576 58.6C149.576 53.2667 149.107 48.9573 148.168 45.672C147.23 42.3867 146.035 40.04 144.584 38.632C143.176 37.224 141.64 36.52 139.976 36.52C138.312 36.52 136.755 37.224 135.304 38.632C133.896 40.04 132.723 42.3867 131.784 45.672C130.846 48.9573 130.376 53.2667 130.376 58.6C130.376 63.9333 130.846 68.2427 131.784 71.528C132.723 74.8133 133.896 77.16 135.304 78.568C136.755 79.976 138.312 80.68 139.976 80.68Z" fill="#202020"/>
</svg>
