<svg width="53" height="52" viewBox="0 0 53 52" fill="none" xmlns="http://www.w3.org/2000/svg">
<path d="M16.8372 33.6628C19.7254 36.5445 23.1414 38.3689 25.3122 39.0915C25.6865 39.2192 26.1174 39.2667 26.5 39.2667C26.8826 39.2667 27.3135 39.2192 27.6878 39.0915C29.8586 38.3689 33.2746 36.5445 36.1628 33.6628C39.0642 30.7681 41.5 26.7345 41.5 21.6208C41.5 16.8357 37.5458 13 32.716 13C30.2975 13 28.0904 13.9708 26.5004 15.543C24.9137 13.9712 22.7151 13 20.284 13C15.4542 13 11.5 16.8357 11.5 21.6208C11.5 26.7345 13.9358 30.7681 16.8372 33.6628Z" stroke="#202020" stroke-width="2" stroke-linecap="round" stroke-linejoin="round"/>
</svg>
