<svg version="1.1" xmlns="http://www.w3.org/2000/svg" xmlns:xlink="http://www.w3.org/1999/xlink" width="28" height="28" viewBox="0,0,256,256"><g fill="#002d5b" fill-rule="nonzero" stroke="none" stroke-width="1" stroke-linecap="butt" stroke-linejoin="miter" stroke-miterlimit="10" stroke-dasharray="" stroke-dashoffset="0" font-family="none" font-weight="none" font-size="none" text-anchor="none" style="mix-blend-mode: normal"><g transform="scale(9.14286,9.14286)"><path d="M17.5813,28h-5.8604v-9.4418h-1.2373c-0.75531,0 -1.36739,-0.6121 -1.36739,-1.3675v-2.4744c0,-0.7553 0.61208,-1.3674 1.36739,-1.3674h1.2373v-3.2558c0,-2.69584 2.1879,-4.88375 4.8837,-4.88375h3.5163c0.7553,0 1.3674,0.61208 1.3674,1.36743v3.12561c0,0.75531 -0.6121,1.36741 -1.3674,1.36741h-2.5396v2.2791h2.4484c0.4167,0 0.7944,0.1823 1.0549,0.4949c0.2604,0.3125 0.3646,0.7293 0.2865,1.133l-0.4949,2.4744c-0.1302,0.6381 -0.6902,1.094 -1.3414,1.094h-1.9535zM13.6744,26.0466h1.9534v-9.4419h3.4382l0.2604,-1.3023h-3.6855v-4.8186c0,-0.75539 0.6121,-1.36747 1.3674,-1.36747h2.5395v-1.95349h-2.9432c-1.6149,0 -2.9302,1.31535 -2.9302,2.93026v5.2093h-2.6047v1.3023h2.6047z"></path><path d="M17.907,28h-7.814c-7.0716,0 -10.093,-3.0214 -10.093,-10.093v-7.814c0,-7.0716 3.0214,-10.093 10.093,-10.093h7.814c7.0716,0 10.093,3.0214 10.093,10.093v7.814c0,7.0716 -3.0214,10.093 -10.093,10.093zM10.093,1.95349c-6.0037,0 -8.13951,2.13581 -8.13951,8.13951v7.814c0,6.0037 2.13581,8.1395 8.13951,8.1395h7.814c6.0037,0 8.1395,-2.1358 8.1395,-8.1395v-7.814c0,-6.0037 -2.1358,-8.13951 -8.1395,-8.13951z"></path></g></g></svg>