<svg version="1.1" xmlns="http://www.w3.org/2000/svg" xmlns:xlink="http://www.w3.org/1999/xlink" width="28" height="28" viewBox="0,0,256,256"><g fill="none" fill-rule="nonzero" stroke="none" stroke-width="none" stroke-linecap="butt" stroke-linejoin="miter" stroke-miterlimit="10" stroke-dasharray="" stroke-dashoffset="0" font-family="none" font-weight="none" font-size="none" text-anchor="none" style="mix-blend-mode: normal"><g transform="scale(9.14286,9.14286)"><path d="M17.907,28h-7.814c-7.0716,0 -10.093,-3.0214 -10.093,-10.093v-7.814c0,-7.0716 3.0214,-10.093 10.093,-10.093h7.814c7.0716,0 10.093,3.0214 10.093,10.093v7.814c0,7.0716 -3.0214,10.093 -10.093,10.093zM10.093,1.95349c-6.0037,0 -8.13951,2.13581 -8.13951,8.13951v7.814c0,6.0037 2.13581,8.1395 8.13951,8.1395h7.814c6.0037,0 8.1395,-2.1358 8.1395,-8.1395v-7.814c0,-6.0037 -2.1358,-8.13951 -8.1395,-8.13951z" fill="#002d5b" stroke="none" stroke-width="1"></path><circle cx="22" cy="7" r="2" fill="#002d5b" stroke="none" stroke-width="1"></circle><circle cx="14" cy="14" r="5" fill="none" stroke="#002d5b" stroke-width="2"></circle></g></g></svg>