<svg width="28" height="28" viewBox="0 0 28 28" fill="none" xmlns="http://www.w3.org/2000/svg">
<path d="M17.907 28H10.093C3.0214 28 0 24.9786 0 17.907V10.093C0 3.0214 3.0214 0 10.093 0H17.907C24.9786 0 28 3.0214 28 10.093V17.907C28 24.9786 24.9786 28 17.907 28ZM10.093 1.95349C4.0893 1.95349 1.95349 4.0893 1.95349 10.093V17.907C1.95349 23.9107 4.0893 26.0465 10.093 26.0465H17.907C23.9107 26.0465 26.0465 23.9107 26.0465 17.907V10.093C26.0465 4.0893 23.9107 1.95349 17.907 1.95349H10.093Z" fill="#202020"/>
<circle cx="22" cy="7" r="2" fill="#202020"/>
<circle cx="14" cy="14" r="5" stroke="#202020" stroke-width="2"/>
</svg>
