<svg width="89" height="52" viewBox="0 0 89 52" fill="none" xmlns="http://www.w3.org/2000/svg">
<path d="M14.5559 21.3C13.6092 21.3 12.7225 21.0867 11.8959 20.66C11.5225 20.4733 11.2092 20.2533 10.9559 20C10.7692 20.3067 10.5359 20.58 10.2559 20.82C10.0159 20.9933 9.88253 21.0867 9.85586 21.1H9.35586V17.3H10.1559C10.3559 17.9533 10.6359 18.54 10.9959 19.06C11.8092 20.22 12.8625 20.8 14.1559 20.8C14.9159 20.8 15.5225 20.5733 15.9759 20.12C16.4292 19.6667 16.6559 19.06 16.6559 18.3C16.6559 17.86 16.5225 17.4667 16.2559 17.12C16.0025 16.7733 15.6825 16.4667 15.2959 16.2C14.9092 15.9333 14.3692 15.6 13.6759 15.2C12.7959 14.7067 12.0825 14.26 11.5359 13.86C10.9892 13.46 10.5225 12.96 10.1359 12.36C9.74919 11.7467 9.55586 11.0267 9.55586 10.2C9.55586 9.54667 9.73586 8.96 10.0959 8.44C10.4692 7.90667 11.0225 7.48667 11.7559 7.18C12.4892 6.86 13.3892 6.7 14.4559 6.7C15.2292 6.7 16.0025 6.92 16.7759 7.36C17.0692 7.52 17.3625 7.73333 17.6559 8C17.8825 7.65333 18.1159 7.38 18.3559 7.18C18.5959 7.00667 18.7292 6.91333 18.7559 6.9H19.2559V10.7H18.4559C18.2825 10.06 18.0225 9.48 17.6759 8.96C17.3559 8.45333 16.9559 8.03333 16.4759 7.7C16.0092 7.36667 15.4692 7.2 14.8559 7.2C14.3359 7.2 13.8892 7.40667 13.5159 7.82C13.1425 8.23333 12.9559 8.76 12.9559 9.4C12.9559 9.89333 13.0959 10.34 13.3759 10.74C13.6692 11.1267 14.0225 11.4667 14.4359 11.76C14.8625 12.0533 15.4359 12.4067 16.1559 12.82C16.9959 13.3 17.6759 13.7267 18.1959 14.1C18.7159 14.4733 19.1559 14.94 19.5159 15.5C19.8759 16.0467 20.0559 16.68 20.0559 17.4C20.0559 18.12 19.8492 18.78 19.4359 19.38C19.0225 19.9667 18.4025 20.4333 17.5759 20.78C16.7492 21.1267 15.7425 21.3 14.5559 21.3ZM26.9504 21V20.7L28.1504 20.4V7.6L26.9504 7.3V7H32.6504V7.3L31.4504 7.6V13.8H35.7504V7.6L34.5504 7.3V7H40.2504V7.3L39.0504 7.6V20.4L40.2504 20.7V21H34.5504V20.7L35.7504 20.4V14.3H31.4504V20.4L32.6504 20.7V21H26.9504ZM54.0434 21.3C52.7367 21.3 51.59 21.02 50.6034 20.46C49.63 19.8867 48.8767 19.0533 48.3434 17.96C47.81 16.8667 47.5434 15.5467 47.5434 14C47.5434 12.4533 47.81 11.1333 48.3434 10.04C48.8767 8.94667 49.63 8.12 50.6034 7.56C51.59 6.98667 52.7367 6.7 54.0434 6.7C55.35 6.7 56.49 6.98667 57.4634 7.56C58.45 8.12 59.21 8.94667 59.7434 10.04C60.2767 11.1333 60.5434 12.4533 60.5434 14C60.5434 15.5467 60.2767 16.8667 59.7434 17.96C59.21 19.0533 58.45 19.8867 57.4634 20.46C56.49 21.02 55.35 21.3 54.0434 21.3ZM54.0434 20.9C54.5634 20.9 55.0434 20.68 55.4834 20.24C55.9367 19.8 56.31 19.0667 56.6034 18.04C56.8967 17.0133 57.0434 15.6667 57.0434 14C57.0434 12.3333 56.8967 10.9867 56.6034 9.96C56.31 8.93333 55.9367 8.2 55.4834 7.76C55.0434 7.32 54.5634 7.1 54.0434 7.1C53.5234 7.1 53.0367 7.32 52.5834 7.76C52.1434 8.2 51.7767 8.93333 51.4834 9.96C51.19 10.9867 51.0434 12.3333 51.0434 14C51.0434 15.6667 51.19 17.0133 51.4834 18.04C51.7767 19.0667 52.1434 19.8 52.5834 20.24C53.0367 20.68 53.5234 20.9 54.0434 20.9ZM67.848 20.7L69.048 20.4V7.6L67.848 7.3V7H73.448C75.6614 7 77.248 7.36667 78.208 8.1C79.168 8.82 79.6481 9.88667 79.6481 11.3C79.6481 12.7133 79.168 13.7867 78.208 14.52C77.248 15.24 75.6614 15.6 73.448 15.6H72.348V20.4L73.548 20.7V21H67.848V20.7ZM73.448 15.1C74.288 15.1 74.9614 14.78 75.468 14.14C75.988 13.5 76.248 12.5533 76.248 11.3C76.248 10.06 75.988 9.12 75.468 8.48C74.9614 7.82667 74.288 7.5 73.448 7.5H72.348V15.1H73.448ZM3.27438 48.52L5.83438 47.56L14.6344 26.28H15.5944L24.7144 48.04L26.3144 48.52V49H22.4744C21.365 49 20.4584 48.7547 19.7544 48.264C19.0504 47.752 18.5277 47.0907 18.1864 46.28L16.5544 42.44H8.90638L6.79438 47.56L9.19438 48.52V49H3.27438V48.52ZM9.22638 41.64H16.2344L12.7144 33.224L9.22638 41.64ZM26.1444 48.52L28.0644 48.04V27.56L26.1444 27.08V26.6H35.2644V27.08L33.3444 27.56V48.2H40.2244C40.2244 46.856 40.5657 45.608 41.2484 44.456C41.547 43.9653 41.899 43.56 42.3044 43.24H43.2644V49H26.1444V48.52ZM54.6506 49.48C51.2373 49.48 48.5706 48.4667 46.6506 46.44C44.7306 44.4133 43.7706 41.5333 43.7706 37.8C43.7706 35.3467 44.1866 33.2453 45.0186 31.496C45.872 29.7253 47.056 28.392 48.5706 27.496C50.1066 26.5787 51.8773 26.12 53.8826 26.12C55.0986 26.12 56.3253 26.472 57.5626 27.176C58.032 27.432 58.5013 27.7733 58.9706 28.2C59.3333 27.6453 59.7066 27.208 60.0906 26.888C60.4746 26.6107 60.688 26.4613 60.7306 26.44H61.5306V32.52H60.2506C59.9733 31.496 59.5573 30.568 59.0026 29.736C58.4906 28.9253 57.8506 28.2533 57.0826 27.72C56.336 27.1867 55.472 26.92 54.4906 26.92C53.0186 26.92 51.792 27.7733 50.8106 29.48C49.8506 31.1867 49.3706 33.96 49.3706 37.8C49.3706 41.704 49.8933 44.4987 50.9386 46.184C52.0053 47.848 53.456 48.68 55.2906 48.68C56.2933 48.68 57.2426 48.4027 58.1386 47.848C59.056 47.272 59.792 46.5147 60.3466 45.576C60.9226 44.6373 61.2106 43.6453 61.2106 42.6H62.0106C62.0106 43.816 61.68 44.9573 61.0186 46.024C60.3786 47.0693 59.4933 47.912 58.3626 48.552C57.2533 49.1707 56.016 49.48 54.6506 49.48ZM73.2381 49.48C71.1475 49.48 69.3128 49.032 67.7341 48.136C66.1768 47.2187 64.9715 45.8853 64.1181 44.136C63.2648 42.3867 62.8381 40.2747 62.8381 37.8C62.8381 35.3253 63.2648 33.2133 64.1181 31.464C64.9715 29.7147 66.1768 28.392 67.7341 27.496C69.3128 26.5787 71.1475 26.12 73.2381 26.12C75.3288 26.12 77.1528 26.5787 78.7101 27.496C80.2888 28.392 81.5048 29.7147 82.3581 31.464C83.2115 33.2133 83.6381 35.3253 83.6381 37.8C83.6381 40.2747 83.2115 42.3867 82.3581 44.136C81.5048 45.8853 80.2888 47.2187 78.7101 48.136C77.1528 49.032 75.3288 49.48 73.2381 49.48ZM73.2381 48.84C74.0701 48.84 74.8381 48.488 75.5421 47.784C76.2675 47.08 76.8648 45.9067 77.3341 44.264C77.8035 42.6213 78.0381 40.4667 78.0381 37.8C78.0381 35.1333 77.8035 32.9787 77.3341 31.336C76.8648 29.6933 76.2675 28.52 75.5421 27.816C74.8381 27.112 74.0701 26.76 73.2381 26.76C72.4061 26.76 71.6275 27.112 70.9021 27.816C70.1981 28.52 69.6115 29.6933 69.1421 31.336C68.6728 32.9787 68.4381 35.1333 68.4381 37.8C68.4381 40.4667 68.6728 42.6213 69.1421 44.264C69.6115 45.9067 70.1981 47.08 70.9021 47.784C71.6275 48.488 72.4061 48.84 73.2381 48.84Z" fill="#202020"/>
</svg>
