<svg width="42" height="42" viewBox="0 0 42 42" fill="none" xmlns="http://www.w3.org/2000/svg">
<path d="M5.49 21.8V21.17H11.09V21.8H5.49ZM12.1323 26V25.79L13.1123 25.51V17.824L11.6423 18.86L11.3623 18.51L13.9103 16.2H15.4223V25.51L16.4023 25.79V26H12.1323ZM21.3795 26.21C20.6235 26.21 19.9375 26.0093 19.3215 25.608C18.7055 25.2067 18.2155 24.6233 17.8515 23.858C17.4968 23.0833 17.3195 22.164 17.3195 21.1C17.3195 20.036 17.4968 19.1213 17.8515 18.356C18.2155 17.5813 18.7055 16.9933 19.3215 16.592C19.9375 16.1907 20.6235 15.99 21.3795 15.99C22.1355 15.99 22.8215 16.1907 23.4375 16.592C24.0535 16.9933 24.5388 17.5813 24.8935 18.356C25.2575 19.1213 25.4395 20.036 25.4395 21.1C25.4395 22.164 25.2575 23.0833 24.8935 23.858C24.5388 24.6233 24.0535 25.2067 23.4375 25.608C22.8215 26.0093 22.1355 26.21 21.3795 26.21ZM21.3795 25.93C22.4528 25.93 22.9895 24.32 22.9895 21.1C22.9895 17.88 22.4528 16.27 21.3795 16.27C20.3061 16.27 19.7695 17.88 19.7695 21.1C19.7695 24.32 20.3061 25.93 21.3795 25.93ZM28.7984 20.96C28.3597 20.96 27.963 20.8573 27.6084 20.652C27.263 20.4467 26.9877 20.162 26.7824 19.798C26.5864 19.4247 26.4884 18.9953 26.4884 18.51C26.4884 18.0247 26.5864 17.6 26.7824 17.236C26.9877 16.8627 27.263 16.5733 27.6084 16.368C27.963 16.1627 28.3597 16.06 28.7984 16.06C29.237 16.06 29.629 16.1627 29.9744 16.368C30.329 16.5733 30.6044 16.8627 30.8004 17.236C31.0057 17.6 31.1084 18.0247 31.1084 18.51C31.1084 18.9953 31.0057 19.4247 30.8004 19.798C30.6044 20.162 30.329 20.4467 29.9744 20.652C29.629 20.8573 29.237 20.96 28.7984 20.96ZM27.3284 26L34.5384 16.2H35.3084L28.0984 26H27.3284ZM28.7984 20.68C29.013 20.68 29.195 20.5167 29.3444 20.19C29.4937 19.8633 29.5684 19.3033 29.5684 18.51C29.5684 17.7167 29.4937 17.1567 29.3444 16.83C29.195 16.5033 29.013 16.34 28.7984 16.34C28.5837 16.34 28.4017 16.5033 28.2524 16.83C28.103 17.1567 28.0284 17.7167 28.0284 18.51C28.0284 19.3033 28.103 19.8633 28.2524 20.19C28.4017 20.5167 28.5837 20.68 28.7984 20.68ZM33.8384 26.14C33.3997 26.14 33.003 26.0373 32.6484 25.832C32.303 25.6267 32.0277 25.342 31.8224 24.978C31.6264 24.6047 31.5284 24.1753 31.5284 23.69C31.5284 23.2047 31.6264 22.78 31.8224 22.416C32.0277 22.0427 32.303 21.7533 32.6484 21.548C33.003 21.3427 33.3997 21.24 33.8384 21.24C34.277 21.24 34.669 21.3427 35.0144 21.548C35.369 21.7533 35.6444 22.0427 35.8404 22.416C36.0457 22.78 36.1484 23.2047 36.1484 23.69C36.1484 24.1753 36.0457 24.6047 35.8404 24.978C35.6444 25.342 35.369 25.6267 35.0144 25.832C34.669 26.0373 34.277 26.14 33.8384 26.14ZM33.8384 25.86C34.053 25.86 34.235 25.6967 34.3844 25.37C34.5337 25.0433 34.6084 24.4833 34.6084 23.69C34.6084 22.8967 34.5337 22.3367 34.3844 22.01C34.235 21.6833 34.053 21.52 33.8384 21.52C33.6237 21.52 33.4417 21.6833 33.2924 22.01C33.143 22.3367 33.0684 22.8967 33.0684 23.69C33.0684 24.4833 33.143 25.0433 33.2924 25.37C33.4417 25.6967 33.6237 25.86 33.8384 25.86Z" fill="#202020"/>
<rect x="0.5" y="0.5" width="41" height="41" rx="20.5" stroke="#202020"/>
</svg>
